<?xml version="1.0" encoding="UTF-8" standalone="no"?>
<!-- Created with Inkscape (http://www.inkscape.org/) -->

<svg
   xmlns:dc="http://purl.org/dc/elements/1.1/"
   xmlns:cc="http://creativecommons.org/ns#"
   xmlns:rdf="http://www.w3.org/1999/02/22-rdf-syntax-ns#"
   xmlns:svg="http://www.w3.org/2000/svg"
   xmlns="http://www.w3.org/2000/svg"
   xmlns:sodipodi="http://sodipodi.sourceforge.net/DTD/sodipodi-0.dtd"
   xmlns:inkscape="http://www.inkscape.org/namespaces/inkscape"
   width="744.09003"
   height="500"
   id="svg2"
   version="1.1"
   inkscape:version="0.48.4 r9939"
   sodipodi:docname="mapred.svg">
  <defs
     id="defs4">
    <inkscape:path-effect
       effect="skeletal"
       id="path-effect3326"
       is_visible="true"
       pattern="m 417.58327,560.42874 10,5 0,-10 z"
       copytype="single_stretched"
       prop_scale="1"
       scale_y_rel="false"
       spacing="0"
       normal_offset="0"
       tang_offset="0"
       prop_units="false"
       vertical_pattern="false"
       fuse_tolerance="0" />
    <inkscape:path-effect
       fuse_tolerance="0"
       vertical_pattern="false"
       prop_units="false"
       tang_offset="0"
       normal_offset="0"
       spacing="0"
       scale_y_rel="false"
       prop_scale="1"
       copytype="single_stretched"
       pattern="m 327.6308,558.38437 10,5 0,-10 z"
       is_visible="true"
       id="path-effect3290"
       effect="skeletal" />
    <inkscape:path-effect
       effect="skeletal"
       id="path-effect3172"
       is_visible="true"
       pattern="m -70,557.36218 10,5 0,-10 z"
       copytype="single_stretched"
       prop_scale="1"
       scale_y_rel="false"
       spacing="0"
       normal_offset="0"
       tang_offset="0"
       prop_units="false"
       vertical_pattern="false"
       fuse_tolerance="0" />
    <inkscape:path-effect
       fuse_tolerance="0"
       vertical_pattern="false"
       prop_units="false"
       tang_offset="0"
       normal_offset="0"
       spacing="0"
       scale_y_rel="false"
       prop_scale="1"
       copytype="single_stretched"
       pattern="m -50.074231,899.73018 10,5 0,-10 z"
       is_visible="true"
       id="path-effect3122"
       effect="skeletal" />
    <inkscape:path-effect
       effect="skeletal"
       id="path-effect3120"
       is_visible="true"
       pattern="m -50.074231,870.61726 10,5 0,-10 z"
       copytype="single_stretched"
       prop_scale="1"
       scale_y_rel="false"
       spacing="0"
       normal_offset="0"
       tang_offset="0"
       prop_units="false"
       vertical_pattern="false"
       fuse_tolerance="0" />
    <inkscape:path-effect
       effect="skeletal"
       id="path-effect3118"
       is_visible="true"
       pattern="m -12.809687,902.05921 10,5 0,-10 z"
       copytype="single_stretched"
       prop_scale="1"
       scale_y_rel="false"
       spacing="0"
       normal_offset="0"
       tang_offset="0"
       prop_units="false"
       vertical_pattern="false"
       fuse_tolerance="0" />
    <inkscape:path-effect
       fuse_tolerance="0"
       vertical_pattern="false"
       prop_units="false"
       tang_offset="0"
       normal_offset="0"
       spacing="0"
       scale_y_rel="false"
       prop_scale="1"
       copytype="single_stretched"
       pattern="m -12.809687,872.94629 10,5 0,-10 z"
       is_visible="true"
       id="path-effect3116"
       effect="skeletal" />
    <inkscape:path-effect
       effect="skeletal"
       id="path-effect3106"
       is_visible="true"
       pattern="m -1.164517,562.02025 10,5 0,-10 z"
       copytype="single_stretched"
       prop_scale="1"
       scale_y_rel="false"
       spacing="0"
       normal_offset="0"
       tang_offset="0"
       prop_units="false"
       vertical_pattern="false"
       fuse_tolerance="0" />
    <inkscape:path-effect
       fuse_tolerance="0"
       vertical_pattern="false"
       prop_units="false"
       tang_offset="0"
       normal_offset="0"
       spacing="0"
       scale_y_rel="false"
       prop_scale="1"
       copytype="single_stretched"
       pattern="m 1.164517,551.5396 10,5 0,-10 z"
       is_visible="true"
       id="path-effect3104"
       effect="skeletal" />
    <inkscape:path-effect
       fuse_tolerance="0"
       vertical_pattern="false"
       prop_units="false"
       tang_offset="0"
       normal_offset="0"
       spacing="0"
       scale_y_rel="false"
       prop_scale="1"
       copytype="single_stretched"
       pattern="m 1.164517,552.70411 10,5 0,-10 z"
       is_visible="true"
       id="path-effect3098"
       effect="skeletal" />
    <inkscape:path-effect
       effect="skeletal"
       id="path-effect3094"
       is_visible="true"
       pattern="M 0,5 10,10 10,0 z"
       copytype="single_stretched"
       prop_scale="1"
       scale_y_rel="false"
       spacing="0"
       normal_offset="0"
       tang_offset="0"
       prop_units="false"
       vertical_pattern="false"
       fuse_tolerance="0" />
    <inkscape:path-effect
       effect="skeletal"
       id="path-effect3090"
       is_visible="true"
       pattern="M 0,5 10,10 10,0 z"
       copytype="single_stretched"
       prop_scale="1"
       scale_y_rel="false"
       spacing="0"
       normal_offset="0"
       tang_offset="0"
       prop_units="false"
       vertical_pattern="false"
       fuse_tolerance="0" />
  </defs>
  <sodipodi:namedview
     id="base"
     pagecolor="#000000"
     bordercolor="#666666"
     borderopacity="1.0"
     inkscape:pageopacity="1"
     inkscape:pageshadow="2"
     inkscape:zoom="0.97829444"
     inkscape:cx="388.57243"
     inkscape:cy="247.10886"
     inkscape:document-units="px"
     inkscape:current-layer="layer1"
     showgrid="false"
     inkscape:window-width="1280"
     inkscape:window-height="754"
     inkscape:window-x="0"
     inkscape:window-y="0"
     inkscape:window-maximized="1" />
  <metadata
     id="metadata7">
    <rdf:RDF>
      <cc:Work
         rdf:about="">
        <dc:format>image/svg+xml</dc:format>
        <dc:type
           rdf:resource="http://purl.org/dc/dcmitype/StillImage" />
      </cc:Work>
    </rdf:RDF>
  </metadata>
  <g
     inkscape:label="Layer 1"
     inkscape:groupmode="layer"
     id="layer1"
     transform="translate(0,-552.36218)">
    <path
       style="fill:#00ff00;fill-rule:evenodd;stroke:none"
       d="m 105.84207,795.00392 73.44392,3.83486 -0.1587,-9.99874 z"
       id="path3170"
       inkscape:path-effect="#path-effect3172"
       inkscape:original-d="m 105.84207,795.00392 73.36457,-1.16451"
       inkscape:connector-curvature="0" />
    <g
       id="g3005"
       transform="translate(-45.714285,7.6114073)">
      <rect
         y="722.09119"
         x="84.014748"
         height="90.956627"
         width="66.09079"
         id="rect2985"
         style="fill:#ffffff;fill-rule:evenodd;stroke:#000000;stroke-width:0.45805499px;stroke-linecap:butt;stroke-linejoin:miter;stroke-opacity:1" />
      <rect
         style="fill:#ffffff;fill-rule:evenodd;stroke:#000000;stroke-width:0.45805499px;stroke-linecap:butt;stroke-linejoin:miter;stroke-opacity:1"
         id="rect2987"
         width="66.09079"
         height="90.956627"
         x="90.558395"
         y="731.25232" />
      <rect
         style="fill:#ffffff;fill-rule:evenodd;stroke:#000000;stroke-width:0.45805499px;stroke-linecap:butt;stroke-linejoin:miter;stroke-opacity:1"
         id="rect2989"
         width="66.09079"
         height="90.956627"
         x="98.410767"
         y="740.41339" />
      <rect
         y="748.92017"
         x="105.60877"
         height="90.956627"
         width="66.09079"
         id="rect2991"
         style="fill:#ffffff;fill-rule:evenodd;stroke:#000000;stroke-width:0.45805499px;stroke-linecap:butt;stroke-linejoin:miter;stroke-opacity:1" />
      <path
         inkscape:connector-curvature="0"
         id="path2993"
         d="m 113.46114,762.00742 c 3.70806,0.65436 7.39045,1.47608 11.12419,1.96309 3.91357,0.51047 4.46316,-0.4165 8.50674,-0.65436 2.17744,-0.12809 4.36467,0.099 6.54364,0 2.62382,-0.11927 5.22947,-0.51632 7.85237,-0.65437 2.61383,-0.13756 5.23491,0 7.85236,0 3.70807,0 7.41613,0 11.1242,0"
         style="fill:none;stroke:#000000;stroke-width:0.45805499px;stroke-linecap:butt;stroke-linejoin:miter;stroke-opacity:1" />
      <path
         inkscape:connector-curvature="0"
         id="path2995"
         d="m 114.74688,772.45427 c 5.43495,3.1997 6.33937,4.28943 11.49457,2.65324 1.23006,-0.39039 2.39384,-1.19295 3.65737,-1.32662 19.13616,-2.02452 1.31763,0.66331 13.58449,0.66331 1.05938,0 2.082,-0.51479 3.13488,-0.66331 1.03858,-0.1465 2.08993,0 3.13489,0 11.57562,0 -0.61344,-0.42901 6.26977,0.66331 0.69126,0.1097 1.39328,0 2.08992,0 0.17416,0 0.52248,-0.2211 0.52248,0 0,0.22111 -0.34832,0 -0.52248,0"
         style="fill:none;stroke:#000000;stroke-width:0.41209006px;stroke-linecap:butt;stroke-linejoin:miter;stroke-opacity:1" />
      <path
         inkscape:connector-curvature="0"
         id="path2997"
         d="m 118.04169,784.2558 c 2.23991,0.71271 12.96473,4.87775 18.3222,5.23492 1.95874,0.13058 3.92618,0 5.88927,0 2.18122,0 4.36243,0 6.54365,0 1.74497,0 3.48994,0 5.23491,0 1.52685,0 3.06904,0.21593 4.58055,0 0.21593,-0.0308 -0.15424,-0.50013 0,-0.65437 0.34488,-0.34487 0.87249,-0.43624 1.30873,-0.65436"
         style="fill:none;stroke:#000000;stroke-width:0.45805499px;stroke-linecap:butt;stroke-linejoin:miter;stroke-opacity:1" />
      <path
         inkscape:connector-curvature="0"
         id="path2999"
         d="m 114.76987,798.65182 c 6.49941,-2.64226 10.09058,5.74162 15.70474,6.54364 4.65898,0.66557 10.72628,-0.76822 15.05038,-1.30873 2.17516,-0.27189 4.3564,-0.50855 6.54364,-0.65436 1.08819,-0.0725 2.19605,0.17929 3.27182,0 0.30427,-0.0507 0.43624,-0.87249 0.65436,-0.65437 0.21812,0.21812 -0.96283,0.65437 -0.65436,0.65437 0.48773,0 0.96385,-0.30949 1.30873,-0.65437 1.3539,-1.3539 -2.06895,0.0529 0.65436,-1.30872 0.19509,-0.0975 0.45927,0.0975 0.65436,0 1.38897,-0.69449 4.43234,-3.28413 5.23492,-3.92619"
         style="fill:none;stroke:#000000;stroke-width:0.45805499px;stroke-linecap:butt;stroke-linejoin:miter;stroke-opacity:1" />
      <path
         inkscape:connector-curvature="0"
         id="path3001"
         d="m 117.91081,814.48743 c 4.36243,0.21812 8.71941,0.65437 13.08729,0.65437 1.54235,0 3.04453,-0.51473 4.58055,-0.65437 0.8689,-0.079 1.74497,0 2.61746,0 1.30872,0 2.61745,0 3.92618,0 4.14431,0 8.28861,0 12.43292,0 1.74497,0 3.48994,0 5.23491,0 0.65437,0 1.30873,0 1.9631,0 0.21812,0 0.65436,-0.21812 0.65436,0 0,0.21812 -0.43624,0 -0.65436,0"
         style="fill:none;stroke:#000000;stroke-width:0.45805499px;stroke-linecap:butt;stroke-linejoin:miter;stroke-opacity:1" />
      <path
         inkscape:connector-curvature="0"
         id="path3003"
         d="m 118.69605,830.71567 c 5.90827,-6.41658 13.21436,1.28331 19.63093,0 1.15181,-0.23036 2.18121,-0.87249 3.27182,-1.30873 1.96309,-0.43624 3.91274,-0.93813 5.88928,-1.30873 1.51593,-0.28424 3.04352,-0.52628 4.58055,-0.65437 1.95631,-0.16302 3.94591,0.27763 5.88927,0 0.68283,-0.0975 1.28027,-0.55681 1.96309,-0.65436 1.3711,-0.19587 3.12888,0 4.58055,0"
         style="fill:none;stroke:#000000;stroke-width:0.45805499px;stroke-linecap:butt;stroke-linejoin:miter;stroke-opacity:1" />
    </g>
    <g
       id="g3180"
       transform="translate(-70,0)">
      <path
         transform="translate(0,552.36218)"
         inkscape:connector-curvature="0"
         inkscape:original-d="M 273.66149,221.68044 C 320.24217,36.522234 321.40669,37.686751 321.40669,37.686751"
         inkscape:path-effect="#path-effect3094"
         id="path3092"
         d="m 273.66149,221.68044 c 14.89324,-53.24256 29.68035,-106.52133 45.33647,-159.494235 0,-3e-6 0,-6e-6 0,-9e-6 1.99956,-6.764865 3.95858,-13.488606 6.11908,-20.079003 0,0 0,0 0,0 0,-3e-6 0,-6e-6 0,-9e-6 0.29387,-0.890638 0.54354,-1.674912 0.80831,-2.326591 -10e-6,-1.2e-5 -3e-5,-2.3e-5 -5e-5,-3.4e-5 -0.68354,-0.441525 -1.46101,-0.689857 -2.31847,-0.737064 -2e-5,-10e-7 -4e-5,-2e-6 -6e-5,-4e-6 -0.66721,-0.380091 -1.26808,-0.744779 -1.79953,-1.091869 -0.13169,-0.09494 -0.26829,-0.180355 -0.40055,-0.264871 l 0,0 c -0.13226,-0.08452 -0.26918,-0.170252 -0.41085,-0.256908 -0.56232,-0.309695 -1.17893,-0.641367 -1.86203,-0.988864 -2e-5,5e-6 -5e-5,9e-6 -7e-5,1.4e-5 -0.96578,0.174915 -1.82491,0.160639 -2.59238,-0.04847 -0.35626,1.068388 -0.61753,2.041772 -0.8465,2.903545 -1.86521,6.902762 -3.48837,13.800192 -5.12298,20.639171 0,10e-7 0,3e-6 0,4e-6 -12.87193,53.816672 -24.83649,107.793372 -36.91039,161.745202 z"
         style="fill:#00ff00;fill-rule:evenodd;stroke:none" />
      <path
         style="fill:#00ff00;fill-rule:evenodd;stroke:none"
         d="m 274.82601,769.38455 c 15.56915,-2.33657 31.13774,-4.69617 46.69518,-6.81177 0,0 0,0 0,0 2.12396,-0.28945 4.21064,-0.57482 6.25637,-0.79747 1e-5,0 1e-5,0 1e-5,0 0.31227,-0.0345 0.56605,-0.0591 0.76019,-0.0621 0,0 0,0 0,0 -0.0666,0.005 -0.19765,0.0186 -0.39331,0.042 -1e-5,-1.3e-4 -2e-5,-2.6e-4 -3e-5,-3.9e-4 -0.11279,-1.38773 -0.18804,-2.63225 -0.22568,-3.73304 -0.0136,-0.39808 -0.023,-0.77739 -0.0268,-1.13764 -3.8e-4,-0.0367 -9.2e-4,-0.0731 -0.002,-0.10935 l 0,0 c -6.4e-4,-0.0363 -0.001,-0.0727 -0.003,-0.10937 -0.0108,-0.36031 -0.0257,-0.73908 -0.0463,-1.13659 -0.057,-1.09933 -0.15151,-2.3417 -0.28356,-3.72717 -0.29621,0.0361 -0.52719,0.0662 -0.69372,0.0884 -0.41783,0.10121 -0.77209,0.20267 -1.06776,0.29376 -2.12558,0.63895 -4.18809,1.31876 -6.21439,1.98719 0,0 0,0 0,0 -14.99494,4.93592 -29.87114,10.0854 -44.75604,15.21355 z"
         id="path3096"
         inkscape:path-effect="#path-effect3098"
         inkscape:original-d="m 274.82601,769.38455 c 51.77012,-12.68959 53.06437,-12.60978 53.06437,-12.60978"
         inkscape:connector-curvature="0" />
      <path
         style="fill:#00ff00;fill-rule:evenodd;stroke:none"
         d="m 274.82601,768.22004 c 15.30533,-17.10213 30.55423,-34.26944 46.29486,-50.84012 10e-6,0 10e-6,-10e-6 10e-6,-10e-6 0,0 0,0 0,0 2.07671,-2.18569 4.07722,-4.315 6.1234,-6.22427 0,0 0,-10e-6 0,-10e-6 0,0 0,0 0,0 0.3194,-0.29284 0.50388,-0.46764 0.5773,-0.48529 0,10e-6 -10e-6,10e-6 -2e-5,10e-6 -0.4122,0.10688 -1.03144,0.35088 -1.85414,0.74049 -7e-5,-1.6e-4 -1.5e-4,-3.3e-4 -2.2e-4,-4.9e-4 -0.59556,-1.32849 -0.9817,-2.50265 -1.1576,-3.52088 -0.0602,-0.3487 -0.0967,-0.67922 -0.10755,-0.9902 -0.001,-0.0323 -0.002,-0.0644 -0.003,-0.0963 l 0,0 c -9.7e-4,-0.0319 -0.002,-0.0641 -0.004,-0.0965 -0.018,-0.31115 -0.0595,-0.63897 -0.12641,-0.98483 -0.19534,-1.00998 -0.59947,-2.17281 -1.21272,-3.48974 -8e-5,-1.7e-4 -1.5e-4,-3.3e-4 -2.3e-4,-5e-4 -0.92456,0.45616 -1.63529,0.78127 -2.13864,0.96875 -1e-5,0 -2e-5,10e-6 -3e-5,10e-6 -0.53857,0.52346 -0.90868,0.95113 -1.14684,1.25533 0,0 0,0 0,0 -2.0373,2.46331 -3.84963,4.95102 -5.6103,7.35541 0,0 0,1e-5 0,1e-5 -13.64183,18.57526 -26.60222,37.51674 -39.63347,56.40913 z"
         id="path3100"
         inkscape:path-effect="#path-effect3104"
         inkscape:original-d="m 274.82601,768.22004 c 48.65645,-61.80582 49.87287,-61.41711 49.87287,-61.41711"
         inkscape:connector-curvature="0" />
      <path
         inkscape:connector-curvature="0"
         inkscape:original-d="m 272.49698,778.70069 c 52.808,-135.11902 54.12821,-134.26922 54.12821,-134.26922"
         inkscape:path-effect="#path-effect3106"
         id="path3102"
         d="m 272.49698,778.70069 c 16.66738,-38.65557 33.22807,-77.36733 50.67215,-115.603 0,0 0,-10e-6 0,-10e-6 2.23933,-4.90726 4.42303,-9.76144 6.79132,-14.42143 0,0 0,0 0,0 0,0 0,0 1e-5,-10e-6 0.33522,-0.65192 0.58973,-1.16961 0.81951,-1.51444 0,0 0,0 0,0 -2e-5,-10e-6 -3e-5,-3e-5 -4e-5,-4e-5 -0.58273,-0.54306 -1.32882,-0.86941 -2.22652,-0.96835 -2e-5,-10e-6 -4e-5,-10e-6 -7e-5,-10e-6 0,0 0,0 0,0 -0.54865,-0.47557 -1.05993,-0.93769 -1.53167,-1.38384 -0.12848,-0.13081 -0.26394,-0.25496 -0.39648,-0.37809 l 0,0 c -0.13254,-0.12313 -0.26829,-0.24747 -0.40733,-0.37286 -0.50421,-0.42168 -1.03364,-0.86008 -1.60024,-1.31218 -3e-5,0 -5e-5,0 -8e-5,0 -1.01512,0.0546 -1.85458,-0.10141 -2.53208,-0.47603 -1e-5,0 -3e-5,-10e-6 -5e-5,-2e-5 -0.4596,0.88056 -0.78625,1.64578 -1.04266,2.26932 0,10e-6 0,10e-6 0,10e-6 -2.1555,5.09256 -4.04225,10.1943 -5.92431,15.21634 0,0 0,0 0,0 -14.81253,39.4772 -28.66029,79.23141 -42.62146,118.94464 z"
         style="fill:#00ff00;fill-rule:evenodd;stroke:none" />
      <g
         transform="matrix(1,0,0,-1,0,1580.562)"
         id="g3132">
        <path
           transform="translate(0,552.36218)"
           inkscape:connector-curvature="0"
           inkscape:original-d="M 273.66149,221.68044 C 320.24217,36.522234 321.40669,37.686751 321.40669,37.686751"
           inkscape:path-effect="#path-effect3094"
           id="path3124"
           d="m 273.66149,221.68044 c 14.89324,-53.24256 29.68035,-106.52133 45.33647,-159.494235 0,-3e-6 0,-6e-6 0,-9e-6 1.99956,-6.764865 3.95858,-13.488606 6.11908,-20.079003 0,0 0,0 0,0 0,-3e-6 0,-6e-6 0,-9e-6 0.29387,-0.890638 0.54354,-1.674912 0.80831,-2.326591 -10e-6,-1.2e-5 -3e-5,-2.3e-5 -5e-5,-3.4e-5 -0.68354,-0.441525 -1.46101,-0.689857 -2.31847,-0.737064 -2e-5,-10e-7 -4e-5,-2e-6 -6e-5,-4e-6 -0.66721,-0.380091 -1.26808,-0.744779 -1.79953,-1.091869 -0.13169,-0.09494 -0.26829,-0.180355 -0.40055,-0.264871 l 0,0 c -0.13226,-0.08452 -0.26918,-0.170252 -0.41085,-0.256908 -0.56232,-0.309695 -1.17893,-0.641367 -1.86203,-0.988864 -2e-5,5e-6 -5e-5,9e-6 -7e-5,1.4e-5 -0.96578,0.174915 -1.82491,0.160639 -2.59238,-0.04847 -0.35626,1.068388 -0.61753,2.041772 -0.8465,2.903545 -1.86521,6.902762 -3.48837,13.800192 -5.12298,20.639171 0,10e-7 0,3e-6 0,4e-6 -12.87193,53.816672 -24.83649,107.793372 -36.91039,161.745202 z"
           style="fill:#00ff00;fill-rule:evenodd;stroke:none" />
        <path
           style="fill:#00ff00;fill-rule:evenodd;stroke:none"
           d="m 274.82601,769.38455 c 15.56915,-2.33657 31.13774,-4.69617 46.69518,-6.81177 0,0 0,0 0,0 2.12396,-0.28945 4.21064,-0.57482 6.25637,-0.79747 1e-5,0 1e-5,0 1e-5,0 0.31227,-0.0345 0.56605,-0.0591 0.76019,-0.0621 0,0 0,0 0,0 -0.0666,0.005 -0.19765,0.0186 -0.39331,0.042 -1e-5,-1.3e-4 -2e-5,-2.6e-4 -3e-5,-3.9e-4 -0.11279,-1.38773 -0.18804,-2.63225 -0.22568,-3.73304 -0.0136,-0.39808 -0.023,-0.77739 -0.0268,-1.13764 -3.8e-4,-0.0367 -9.2e-4,-0.0731 -0.002,-0.10935 l 0,0 c -6.4e-4,-0.0363 -0.001,-0.0727 -0.003,-0.10937 -0.0108,-0.36031 -0.0257,-0.73908 -0.0463,-1.13659 -0.057,-1.09933 -0.15151,-2.3417 -0.28356,-3.72717 -0.29621,0.0361 -0.52719,0.0662 -0.69372,0.0884 -0.41783,0.10121 -0.77209,0.20267 -1.06776,0.29376 -2.12558,0.63895 -4.18809,1.31876 -6.21439,1.98719 0,0 0,0 0,0 -14.99494,4.93592 -29.87114,10.0854 -44.75604,15.21355 z"
           id="path3126"
           inkscape:path-effect="#path-effect3098"
           inkscape:original-d="m 274.82601,769.38455 c 51.77012,-12.68959 53.06437,-12.60978 53.06437,-12.60978"
           inkscape:connector-curvature="0" />
        <path
           style="fill:#00ff00;fill-rule:evenodd;stroke:none"
           d="m 274.82601,768.22004 c 15.30533,-17.10213 30.55423,-34.26944 46.29486,-50.84012 10e-6,0 10e-6,-10e-6 10e-6,-10e-6 0,0 0,0 0,0 2.07671,-2.18569 4.07722,-4.315 6.1234,-6.22427 0,0 0,-10e-6 0,-10e-6 0,0 0,0 0,0 0.3194,-0.29284 0.50388,-0.46764 0.5773,-0.48529 0,10e-6 -10e-6,10e-6 -2e-5,10e-6 -0.4122,0.10688 -1.03144,0.35088 -1.85414,0.74049 -7e-5,-1.6e-4 -1.5e-4,-3.3e-4 -2.2e-4,-4.9e-4 -0.59556,-1.32849 -0.9817,-2.50265 -1.1576,-3.52088 -0.0602,-0.3487 -0.0967,-0.67922 -0.10755,-0.9902 -0.001,-0.0323 -0.002,-0.0644 -0.003,-0.0963 l 0,0 c -9.7e-4,-0.0319 -0.002,-0.0641 -0.004,-0.0965 -0.018,-0.31115 -0.0595,-0.63897 -0.12641,-0.98483 -0.19534,-1.00998 -0.59947,-2.17281 -1.21272,-3.48974 -8e-5,-1.7e-4 -1.5e-4,-3.3e-4 -2.3e-4,-5e-4 -0.92456,0.45616 -1.63529,0.78127 -2.13864,0.96875 -1e-5,0 -2e-5,10e-6 -3e-5,10e-6 -0.53857,0.52346 -0.90868,0.95113 -1.14684,1.25533 0,0 0,0 0,0 -2.0373,2.46331 -3.84963,4.95102 -5.6103,7.35541 0,0 0,1e-5 0,1e-5 -13.64183,18.57526 -26.60222,37.51674 -39.63347,56.40913 z"
           id="path3128"
           inkscape:path-effect="#path-effect3104"
           inkscape:original-d="m 274.82601,768.22004 c 48.65645,-61.80582 49.87287,-61.41711 49.87287,-61.41711"
           inkscape:connector-curvature="0" />
        <path
           inkscape:connector-curvature="0"
           inkscape:original-d="m 272.49698,778.70069 c 52.808,-135.11902 54.12821,-134.26922 54.12821,-134.26922"
           inkscape:path-effect="#path-effect3106"
           id="path3130"
           d="m 272.49698,778.70069 c 16.66738,-38.65557 33.22807,-77.36733 50.67215,-115.603 0,0 0,-10e-6 0,-10e-6 2.23933,-4.90726 4.42303,-9.76144 6.79132,-14.42143 0,0 0,0 0,0 0,0 0,0 1e-5,-10e-6 0.33522,-0.65192 0.58973,-1.16961 0.81951,-1.51444 0,0 0,0 0,0 -2e-5,-10e-6 -3e-5,-3e-5 -4e-5,-4e-5 -0.58273,-0.54306 -1.32882,-0.86941 -2.22652,-0.96835 -2e-5,-10e-6 -4e-5,-10e-6 -7e-5,-10e-6 0,0 0,0 0,0 -0.54865,-0.47557 -1.05993,-0.93769 -1.53167,-1.38384 -0.12848,-0.13081 -0.26394,-0.25496 -0.39648,-0.37809 l 0,0 c -0.13254,-0.12313 -0.26829,-0.24747 -0.40733,-0.37286 -0.50421,-0.42168 -1.03364,-0.86008 -1.60024,-1.31218 -3e-5,0 -5e-5,0 -8e-5,0 -1.01512,0.0546 -1.85458,-0.10141 -2.53208,-0.47603 -1e-5,0 -3e-5,-10e-6 -5e-5,-2e-5 -0.4596,0.88056 -0.78625,1.64578 -1.04266,2.26932 0,10e-6 0,10e-6 0,10e-6 -2.1555,5.09256 -4.04225,10.1943 -5.92431,15.21634 0,0 0,0 0,0 -14.81253,39.4772 -28.66029,79.23141 -42.62146,118.94464 z"
           style="fill:#00ff00;fill-rule:evenodd;stroke:none" />
      </g>
    </g>
    <g
       id="g3157"
       transform="translate(-67.670966,16.303238)">
      <g
         id="g3337"
         transform="translate(28.62124,34.754363)">
        <g
           id="g3347"
           transform="translate(1.0221871,-14.31062)">
          <rect
             transform="matrix(0,-1,1,0,0,0)"
             style="fill:#ececec;stroke:#00ff00;stroke-width:1.01759207"
             id="rect3072"
             width="116.9283"
             height="31.41098"
             x="-812.86804"
             y="213.53041" />
          <text
             transform="matrix(0,-1,1,0,0,0)"
             xml:space="preserve"
             style="font-size:40px;font-style:normal;font-weight:normal;line-height:125%;letter-spacing:0px;word-spacing:0px;fill:#000000;fill-opacity:1;stroke:#00ff00;font-family:Sans"
             x="-808.38086"
             y="231.88354"
             id="text3084"
             sodipodi:linespacing="125%"><tspan
               sodipodi:role="line"
               id="tspan3086"
               x="-808.38086"
               y="231.88354"
               style="font-size:20px;stroke:#00ff00">preprocess</tspan></text>
        </g>
      </g>
    </g>
    <g
       id="g3191"
       transform="matrix(-1,0,0,1,681.17061,-3.493551)">
      <path
         style="fill:#00ff00;fill-rule:evenodd;stroke:none"
         d="m 273.66149,221.68044 c 14.89324,-53.24256 29.68035,-106.52133 45.33647,-159.494235 0,-3e-6 0,-6e-6 0,-9e-6 1.99956,-6.764865 3.95858,-13.488606 6.11908,-20.079003 0,0 0,0 0,0 0,-3e-6 0,-6e-6 0,-9e-6 0.29387,-0.890638 0.54354,-1.674912 0.80831,-2.326591 -10e-6,-1.2e-5 -3e-5,-2.3e-5 -5e-5,-3.4e-5 -0.68354,-0.441525 -1.46101,-0.689857 -2.31847,-0.737064 -2e-5,-10e-7 -4e-5,-2e-6 -6e-5,-4e-6 -0.66721,-0.380091 -1.26808,-0.744779 -1.79953,-1.091869 -0.13169,-0.09494 -0.26829,-0.180355 -0.40055,-0.264871 l 0,0 c -0.13226,-0.08452 -0.26918,-0.170252 -0.41085,-0.256908 -0.56232,-0.309695 -1.17893,-0.641367 -1.86203,-0.988864 -2e-5,5e-6 -5e-5,9e-6 -7e-5,1.4e-5 -0.96578,0.174915 -1.82491,0.160639 -2.59238,-0.04847 -0.35626,1.068388 -0.61753,2.041772 -0.8465,2.903545 -1.86521,6.902762 -3.48837,13.800192 -5.12298,20.639171 0,10e-7 0,3e-6 0,4e-6 -12.87193,53.816672 -24.83649,107.793372 -36.91039,161.745202 z"
         id="path3193"
         inkscape:path-effect="#path-effect3094"
         inkscape:original-d="M 273.66149,221.68044 C 320.24217,36.522234 321.40669,37.686751 321.40669,37.686751"
         inkscape:connector-curvature="0"
         transform="translate(0,552.36218)" />
      <path
         inkscape:connector-curvature="0"
         inkscape:original-d="m 274.82601,769.38455 c 51.77012,-12.68959 53.06437,-12.60978 53.06437,-12.60978"
         inkscape:path-effect="#path-effect3098"
         id="path3195"
         d="m 274.82601,769.38455 c 15.56915,-2.33657 31.13774,-4.69617 46.69518,-6.81177 0,0 0,0 0,0 2.12396,-0.28945 4.21064,-0.57482 6.25637,-0.79747 1e-5,0 1e-5,0 1e-5,0 0.31227,-0.0345 0.56605,-0.0591 0.76019,-0.0621 0,0 0,0 0,0 -0.0666,0.005 -0.19765,0.0186 -0.39331,0.042 -1e-5,-1.3e-4 -2e-5,-2.6e-4 -3e-5,-3.9e-4 -0.11279,-1.38773 -0.18804,-2.63225 -0.22568,-3.73304 -0.0136,-0.39808 -0.023,-0.77739 -0.0268,-1.13764 -3.8e-4,-0.0367 -9.2e-4,-0.0731 -0.002,-0.10935 l 0,0 c -6.4e-4,-0.0363 -0.001,-0.0727 -0.003,-0.10937 -0.0108,-0.36031 -0.0257,-0.73908 -0.0463,-1.13659 -0.057,-1.09933 -0.15151,-2.3417 -0.28356,-3.72717 -0.29621,0.0361 -0.52719,0.0662 -0.69372,0.0884 -0.41783,0.10121 -0.77209,0.20267 -1.06776,0.29376 -2.12558,0.63895 -4.18809,1.31876 -6.21439,1.98719 0,0 0,0 0,0 -14.99494,4.93592 -29.87114,10.0854 -44.75604,15.21355 z"
         style="fill:#00ff00;fill-rule:evenodd;stroke:none" />
      <path
         inkscape:connector-curvature="0"
         inkscape:original-d="m 274.82601,768.22004 c 48.65645,-61.80582 49.87287,-61.41711 49.87287,-61.41711"
         inkscape:path-effect="#path-effect3104"
         id="path3197"
         d="m 274.82601,768.22004 c 15.30533,-17.10213 30.55423,-34.26944 46.29486,-50.84012 10e-6,0 10e-6,-10e-6 10e-6,-10e-6 0,0 0,0 0,0 2.07671,-2.18569 4.07722,-4.315 6.1234,-6.22427 0,0 0,-10e-6 0,-10e-6 0,0 0,0 0,0 0.3194,-0.29284 0.50388,-0.46764 0.5773,-0.48529 0,10e-6 -10e-6,10e-6 -2e-5,10e-6 -0.4122,0.10688 -1.03144,0.35088 -1.85414,0.74049 -7e-5,-1.6e-4 -1.5e-4,-3.3e-4 -2.2e-4,-4.9e-4 -0.59556,-1.32849 -0.9817,-2.50265 -1.1576,-3.52088 -0.0602,-0.3487 -0.0967,-0.67922 -0.10755,-0.9902 -0.001,-0.0323 -0.002,-0.0644 -0.003,-0.0963 l 0,0 c -9.7e-4,-0.0319 -0.002,-0.0641 -0.004,-0.0965 -0.018,-0.31115 -0.0595,-0.63897 -0.12641,-0.98483 -0.19534,-1.00998 -0.59947,-2.17281 -1.21272,-3.48974 -8e-5,-1.7e-4 -1.5e-4,-3.3e-4 -2.3e-4,-5e-4 -0.92456,0.45616 -1.63529,0.78127 -2.13864,0.96875 -1e-5,0 -2e-5,10e-6 -3e-5,10e-6 -0.53857,0.52346 -0.90868,0.95113 -1.14684,1.25533 0,0 0,0 0,0 -2.0373,2.46331 -3.84963,4.95102 -5.6103,7.35541 0,0 0,1e-5 0,1e-5 -13.64183,18.57526 -26.60222,37.51674 -39.63347,56.40913 z"
         style="fill:#00ff00;fill-rule:evenodd;stroke:none" />
      <path
         style="fill:#00ff00;fill-rule:evenodd;stroke:none"
         d="m 272.49698,778.70069 c 16.66738,-38.65557 33.22807,-77.36733 50.67215,-115.603 0,0 0,-10e-6 0,-10e-6 2.23933,-4.90726 4.42303,-9.76144 6.79132,-14.42143 0,0 0,0 0,0 0,0 0,0 1e-5,-10e-6 0.33522,-0.65192 0.58973,-1.16961 0.81951,-1.51444 0,0 0,0 0,0 -2e-5,-10e-6 -3e-5,-3e-5 -4e-5,-4e-5 -0.58273,-0.54306 -1.32882,-0.86941 -2.22652,-0.96835 -2e-5,-10e-6 -4e-5,-10e-6 -7e-5,-10e-6 0,0 0,0 0,0 -0.54865,-0.47557 -1.05993,-0.93769 -1.53167,-1.38384 -0.12848,-0.13081 -0.26394,-0.25496 -0.39648,-0.37809 l 0,0 c -0.13254,-0.12313 -0.26829,-0.24747 -0.40733,-0.37286 -0.50421,-0.42168 -1.03364,-0.86008 -1.60024,-1.31218 -3e-5,0 -5e-5,0 -8e-5,0 -1.01512,0.0546 -1.85458,-0.10141 -2.53208,-0.47603 -1e-5,0 -3e-5,-10e-6 -5e-5,-2e-5 -0.4596,0.88056 -0.78625,1.64578 -1.04266,2.26932 0,10e-6 0,10e-6 0,10e-6 -2.1555,5.09256 -4.04225,10.1943 -5.92431,15.21634 0,0 0,0 0,0 -14.81253,39.4772 -28.66029,79.23141 -42.62146,118.94464 z"
         id="path3199"
         inkscape:path-effect="#path-effect3106"
         inkscape:original-d="m 272.49698,778.70069 c 52.808,-135.11902 54.12821,-134.26922 54.12821,-134.26922"
         inkscape:connector-curvature="0" />
      <g
         id="g3201"
         transform="matrix(1,0,0,-1,0,1580.562)">
        <path
           style="fill:#00ff00;fill-rule:evenodd;stroke:none"
           d="m 273.66149,221.68044 c 14.89324,-53.24256 29.68035,-106.52133 45.33647,-159.494235 0,-3e-6 0,-6e-6 0,-9e-6 1.99956,-6.764865 3.95858,-13.488606 6.11908,-20.079003 0,0 0,0 0,0 0,-3e-6 0,-6e-6 0,-9e-6 0.29387,-0.890638 0.54354,-1.674912 0.80831,-2.326591 -10e-6,-1.2e-5 -3e-5,-2.3e-5 -5e-5,-3.4e-5 -0.68354,-0.441525 -1.46101,-0.689857 -2.31847,-0.737064 -2e-5,-10e-7 -4e-5,-2e-6 -6e-5,-4e-6 -0.66721,-0.380091 -1.26808,-0.744779 -1.79953,-1.091869 -0.13169,-0.09494 -0.26829,-0.180355 -0.40055,-0.264871 l 0,0 c -0.13226,-0.08452 -0.26918,-0.170252 -0.41085,-0.256908 -0.56232,-0.309695 -1.17893,-0.641367 -1.86203,-0.988864 -2e-5,5e-6 -5e-5,9e-6 -7e-5,1.4e-5 -0.96578,0.174915 -1.82491,0.160639 -2.59238,-0.04847 -0.35626,1.068388 -0.61753,2.041772 -0.8465,2.903545 -1.86521,6.902762 -3.48837,13.800192 -5.12298,20.639171 0,10e-7 0,3e-6 0,4e-6 -12.87193,53.816672 -24.83649,107.793372 -36.91039,161.745202 z"
           id="path3203"
           inkscape:path-effect="#path-effect3094"
           inkscape:original-d="M 273.66149,221.68044 C 320.24217,36.522234 321.40669,37.686751 321.40669,37.686751"
           inkscape:connector-curvature="0"
           transform="translate(0,552.36218)" />
        <path
           inkscape:connector-curvature="0"
           inkscape:original-d="m 274.82601,769.38455 c 51.77012,-12.68959 53.06437,-12.60978 53.06437,-12.60978"
           inkscape:path-effect="#path-effect3098"
           id="path3205"
           d="m 274.82601,769.38455 c 15.56915,-2.33657 31.13774,-4.69617 46.69518,-6.81177 0,0 0,0 0,0 2.12396,-0.28945 4.21064,-0.57482 6.25637,-0.79747 1e-5,0 1e-5,0 1e-5,0 0.31227,-0.0345 0.56605,-0.0591 0.76019,-0.0621 0,0 0,0 0,0 -0.0666,0.005 -0.19765,0.0186 -0.39331,0.042 -1e-5,-1.3e-4 -2e-5,-2.6e-4 -3e-5,-3.9e-4 -0.11279,-1.38773 -0.18804,-2.63225 -0.22568,-3.73304 -0.0136,-0.39808 -0.023,-0.77739 -0.0268,-1.13764 -3.8e-4,-0.0367 -9.2e-4,-0.0731 -0.002,-0.10935 l 0,0 c -6.4e-4,-0.0363 -0.001,-0.0727 -0.003,-0.10937 -0.0108,-0.36031 -0.0257,-0.73908 -0.0463,-1.13659 -0.057,-1.09933 -0.15151,-2.3417 -0.28356,-3.72717 -0.29621,0.0361 -0.52719,0.0662 -0.69372,0.0884 -0.41783,0.10121 -0.77209,0.20267 -1.06776,0.29376 -2.12558,0.63895 -4.18809,1.31876 -6.21439,1.98719 0,0 0,0 0,0 -14.99494,4.93592 -29.87114,10.0854 -44.75604,15.21355 z"
           style="fill:#00ff00;fill-rule:evenodd;stroke:none" />
        <path
           inkscape:connector-curvature="0"
           inkscape:original-d="m 274.82601,768.22004 c 48.65645,-61.80582 49.87287,-61.41711 49.87287,-61.41711"
           inkscape:path-effect="#path-effect3104"
           id="path3207"
           d="m 274.82601,768.22004 c 15.30533,-17.10213 30.55423,-34.26944 46.29486,-50.84012 10e-6,0 10e-6,-10e-6 10e-6,-10e-6 0,0 0,0 0,0 2.07671,-2.18569 4.07722,-4.315 6.1234,-6.22427 0,0 0,-10e-6 0,-10e-6 0,0 0,0 0,0 0.3194,-0.29284 0.50388,-0.46764 0.5773,-0.48529 0,10e-6 -10e-6,10e-6 -2e-5,10e-6 -0.4122,0.10688 -1.03144,0.35088 -1.85414,0.74049 -7e-5,-1.6e-4 -1.5e-4,-3.3e-4 -2.2e-4,-4.9e-4 -0.59556,-1.32849 -0.9817,-2.50265 -1.1576,-3.52088 -0.0602,-0.3487 -0.0967,-0.67922 -0.10755,-0.9902 -0.001,-0.0323 -0.002,-0.0644 -0.003,-0.0963 l 0,0 c -9.7e-4,-0.0319 -0.002,-0.0641 -0.004,-0.0965 -0.018,-0.31115 -0.0595,-0.63897 -0.12641,-0.98483 -0.19534,-1.00998 -0.59947,-2.17281 -1.21272,-3.48974 -8e-5,-1.7e-4 -1.5e-4,-3.3e-4 -2.3e-4,-5e-4 -0.92456,0.45616 -1.63529,0.78127 -2.13864,0.96875 -1e-5,0 -2e-5,10e-6 -3e-5,10e-6 -0.53857,0.52346 -0.90868,0.95113 -1.14684,1.25533 0,0 0,0 0,0 -2.0373,2.46331 -3.84963,4.95102 -5.6103,7.35541 0,0 0,1e-5 0,1e-5 -13.64183,18.57526 -26.60222,37.51674 -39.63347,56.40913 z"
           style="fill:#00ff00;fill-rule:evenodd;stroke:none" />
        <path
           style="fill:#00ff00;fill-rule:evenodd;stroke:none"
           d="m 272.49698,778.70069 c 16.66738,-38.65557 33.22807,-77.36733 50.67215,-115.603 0,0 0,-10e-6 0,-10e-6 2.23933,-4.90726 4.42303,-9.76144 6.79132,-14.42143 0,0 0,0 0,0 0,0 0,0 1e-5,-10e-6 0.33522,-0.65192 0.58973,-1.16961 0.81951,-1.51444 0,0 0,0 0,0 -2e-5,-10e-6 -3e-5,-3e-5 -4e-5,-4e-5 -0.58273,-0.54306 -1.32882,-0.86941 -2.22652,-0.96835 -2e-5,-10e-6 -4e-5,-10e-6 -7e-5,-10e-6 0,0 0,0 0,0 -0.54865,-0.47557 -1.05993,-0.93769 -1.53167,-1.38384 -0.12848,-0.13081 -0.26394,-0.25496 -0.39648,-0.37809 l 0,0 c -0.13254,-0.12313 -0.26829,-0.24747 -0.40733,-0.37286 -0.50421,-0.42168 -1.03364,-0.86008 -1.60024,-1.31218 -3e-5,0 -5e-5,0 -8e-5,0 -1.01512,0.0546 -1.85458,-0.10141 -2.53208,-0.47603 -1e-5,0 -3e-5,-10e-6 -5e-5,-2e-5 -0.4596,0.88056 -0.78625,1.64578 -1.04266,2.26932 0,10e-6 0,10e-6 0,10e-6 -2.1555,5.09256 -4.04225,10.1943 -5.92431,15.21634 0,0 0,0 0,0 -14.81253,39.4772 -28.66029,79.23141 -42.62146,118.94464 z"
           id="path3209"
           inkscape:path-effect="#path-effect3106"
           inkscape:original-d="m 272.49698,778.70069 c 52.808,-135.11902 54.12821,-134.26922 54.12821,-134.26922"
           inkscape:connector-curvature="0" />
      </g>
    </g>
    <path
       inkscape:connector-curvature="0"
       inkscape:original-d="M 576.91679,796.02611 503.55222,794.8616"
       inkscape:path-effect="#path-effect3290"
       id="path3288"
       d="m 576.91679,796.02611 -73.28522,-6.16388 -0.1587,9.99874 z"
       style="fill:#00ff00;fill-rule:evenodd;stroke:none" />
    <g
       id="g3162"
       transform="translate(-137.54199,-4.3848302)">
      <g
         transform="matrix(0.7088664,0,0,0.7088664,216.21712,271.98517)"
         id="g3055">
        <rect
           style="fill:#ececec"
           id="rect3049"
           width="161.42857"
           height="144.28572"
           x="458.57144"
           y="665.2193" />
        <path
           transform="translate(4.1349623e-8,696.64789)"
           d="m 618.57141,110.71429 c 0,9.86222 -35.81722,17.85714 -80,17.85714 -44.18278,0 -80,-7.99492 -80,-17.85714 0,-9.86223 35.81722,-17.857147 80,-17.857147 44.18278,0 80,7.994917 80,17.857147 z"
           sodipodi:ry="17.857143"
           sodipodi:rx="80"
           sodipodi:cy="110.71429"
           sodipodi:cx="538.57141"
           id="path3053"
           style="fill:#ececec"
           sodipodi:type="arc" />
        <path
           sodipodi:type="arc"
           style="fill:#ececec;stroke:#000000"
           id="path3047"
           sodipodi:cx="538.57141"
           sodipodi:cy="110.71429"
           sodipodi:rx="80"
           sodipodi:ry="17.857143"
           d="m 618.57141,110.71429 c 0,9.86222 -35.81722,17.85714 -80,17.85714 -44.18278,0 -80,-7.99492 -80,-17.85714 0,-9.86223 35.81722,-17.857147 80,-17.857147 44.18278,0 80,7.994917 80,17.857147 z"
           transform="translate(0,552.36218)" />
      </g>
      <text
         sodipodi:linespacing="125%"
         id="text3060"
         y="799.71448"
         x="583.52271"
         style="font-size:40px;font-style:normal;font-weight:normal;line-height:125%;letter-spacing:0px;word-spacing:0px;fill:#00ff00;fill-opacity:1;stroke:none;font-family:Sans"
         xml:space="preserve"><tspan
           style="font-size:20px;fill:#00ff00;stroke:#000000"
           y="799.71448"
           x="583.52271"
           id="tspan3062"
           sodipodi:role="line">db</tspan></text>
    </g>
    <g
       id="g3074"
       transform="translate(-72.329034,-2.329034)">
      <rect
         y="575.21936"
         x="321.42856"
         height="31.428572"
         width="112.85714"
         id="rect3017"
         style="fill:#ececec" />
      <rect
         style="fill:#ececec"
         id="rect3021"
         width="112.85714"
         height="31.428572"
         x="321.42856"
         y="691.54584" />
      <rect
         style="fill:#ececec"
         id="rect3023"
         width="112.85714"
         height="31.428572"
         x="321.42856"
         y="807.87238" />
      <rect
         y="924.19891"
         x="321.42856"
         height="31.428572"
         width="112.85714"
         id="rect3025"
         style="fill:#ececec" />
      <rect
         style="fill:#ececec"
         id="rect3027"
         width="112.85714"
         height="31.428572"
         x="321.42856"
         y="633.38263" />
      <rect
         y="749.70917"
         x="321.42856"
         height="31.428572"
         width="112.85714"
         id="rect3029"
         style="fill:#ececec" />
      <rect
         y="866.03564"
         x="321.42856"
         height="31.428572"
         width="112.85714"
         id="rect3031"
         style="fill:#ececec" />
      <rect
         style="fill:#ececec"
         id="rect3033"
         width="112.85714"
         height="31.428572"
         x="321.42856"
         y="982.36218" />
    </g>
    <text
       xml:space="preserve"
       style="font-size:40px;font-style:normal;font-weight:normal;line-height:125%;letter-spacing:0px;word-spacing:0px;fill:#000000;fill-opacity:1;stroke:#00ff00;font-family:Sans"
       x="267.12762"
       y="593.62201"
       id="text3215"
       sodipodi:linespacing="125%"><tspan
         sodipodi:role="line"
         id="tspan3217"
         x="267.12762"
         y="593.62201"
         style="font-size:20px;stroke:#00ff00">batch 1</tspan></text>
    <text
       sodipodi:linespacing="125%"
       id="text3232"
       y="655.34143"
       x="270.62119"
       style="font-size:40px;font-style:normal;font-weight:normal;line-height:125%;letter-spacing:0px;word-spacing:0px;fill:#000000;fill-opacity:1;stroke:#00ff00;font-family:Sans"
       xml:space="preserve"><tspan
         style="font-size:20px;stroke:#00ff00"
         y="655.34143"
         x="270.62119"
         id="tspan3234"
         sodipodi:role="line">batch 2</tspan></text>
    <text
       sodipodi:linespacing="125%"
       id="text3236"
       y="708.90918"
       x="269.45667"
       style="font-size:40px;font-style:normal;font-weight:normal;line-height:125%;letter-spacing:0px;word-spacing:0px;fill:#000000;fill-opacity:1;stroke:#00ff00;font-family:Sans"
       xml:space="preserve"><tspan
         style="font-size:20px;stroke:#00ff00"
         y="708.90918"
         x="269.45667"
         id="tspan3238"
         sodipodi:role="line">batch 3</tspan></text>
    <text
       xml:space="preserve"
       style="font-size:40px;font-style:normal;font-weight:normal;line-height:125%;letter-spacing:0px;word-spacing:0px;fill:#000000;fill-opacity:1;stroke:#00ff00;font-family:Sans"
       x="272.95023"
       y="770.6286"
       id="text3240"
       sodipodi:linespacing="125%"><tspan
         sodipodi:role="line"
         id="tspan3242"
         x="272.95023"
         y="770.6286"
         style="font-size:20px;stroke:#00ff00">batch 4</tspan></text>
    <text
       sodipodi:linespacing="125%"
       id="text3244"
       y="827.68994"
       x="265.9631"
       style="font-size:40px;font-style:normal;font-weight:normal;line-height:125%;letter-spacing:0px;word-spacing:0px;fill:#000000;fill-opacity:1;stroke:#00ff00;font-family:Sans"
       xml:space="preserve"><tspan
         style="font-size:20px;stroke:#00ff00"
         y="827.68994"
         x="265.9631"
         id="tspan3246"
         sodipodi:role="line">batch 5</tspan></text>
    <text
       xml:space="preserve"
       style="font-size:40px;font-style:normal;font-weight:normal;line-height:125%;letter-spacing:0px;word-spacing:0px;fill:#000000;fill-opacity:1;stroke:#00ff00;font-family:Sans"
       x="269.45667"
       y="889.40936"
       id="text3248"
       sodipodi:linespacing="125%"><tspan
         sodipodi:role="line"
         id="tspan3250"
         x="269.45667"
         y="889.40936"
         style="font-size:20px;stroke:#00ff00">batch 6</tspan></text>
    <text
       xml:space="preserve"
       style="font-size:40px;font-style:normal;font-weight:normal;line-height:125%;letter-spacing:0px;word-spacing:0px;fill:#000000;fill-opacity:1;stroke:#00ff00;font-family:Sans"
       x="268.29214"
       y="942.97711"
       id="text3252"
       sodipodi:linespacing="125%"><tspan
         sodipodi:role="line"
         id="tspan3254"
         x="268.29214"
         y="942.97711"
         style="font-size:20px;stroke:#00ff00">batch 7</tspan></text>
    <text
       sodipodi:linespacing="125%"
       id="text3256"
       y="1004.6965"
       x="271.78571"
       style="font-size:40px;font-style:normal;font-weight:normal;line-height:125%;letter-spacing:0px;word-spacing:0px;fill:#000000;fill-opacity:1;stroke:#00ff00;font-family:Sans"
       xml:space="preserve"><tspan
         style="font-size:20px;stroke:#00ff00"
         y="1004.6965"
         x="271.78571"
         id="tspan3258"
         sodipodi:role="line">batch 8</tspan></text>
    <path
       style="fill:#00ff00;fill-rule:evenodd;stroke:none"
       d="m 666.86926,798.07048 -73.28522,-6.16388 -0.1587,9.99874 z"
       id="path3324"
       inkscape:path-effect="#path-effect3326"
       inkscape:original-d="m 666.86926,798.07048 -73.36457,-1.16451"
       inkscape:connector-curvature="0" />
    <g
       transform="translate(325.87108,23.79484)"
       id="g3280">
      <g
         id="g3342"
         transform="translate(0,10.221871)">
        <rect
           transform="matrix(0,-1,1,0,0,0)"
           style="fill:#ececec;stroke:#00ff00;stroke-width:1.00883615"
           id="rect3282"
           width="114.89268"
           height="31.419735"
           x="-812.02502"
           y="242.14726" />
        <text
           transform="matrix(0,-1,1,0,0,0)"
           xml:space="preserve"
           style="font-size:40px;font-style:normal;font-weight:normal;line-height:125%;letter-spacing:0px;word-spacing:0px;fill:#000000;fill-opacity:1;stroke:#00ff00;font-family:Sans"
           x="-805.98248"
           y="263.57135"
           id="text3284"
           sodipodi:linespacing="125%"><tspan
             sodipodi:role="line"
             id="tspan3286"
             x="-805.98248"
             y="263.57135"
             style="font-size:20px;stroke:#00ff00">aggregate</tspan></text>
      </g>
    </g>
    <g
       id="g3328"
       transform="translate(-5.1109357,-9.8918276)">
      <rect
         style="fill:#ffffff;fill-rule:evenodd;stroke:#000000;stroke-width:0.45805499px;stroke-linecap:butt;stroke-linejoin:miter;stroke-opacity:1"
         id="rect3300"
         width="66.09079"
         height="90.956627"
         x="650.71863"
         y="753.00891" />
      <path
         style="fill:none;stroke:#000000;stroke-width:0.45805499px;stroke-linecap:butt;stroke-linejoin:miter;stroke-opacity:1"
         d="m 658.57102,766.09617 c 3.70806,0.65436 7.39045,1.47608 11.12419,1.96309 3.91357,0.51047 4.46316,-0.4165 8.50674,-0.65436 2.17744,-0.12809 4.36467,0.099 6.54364,0 2.62382,-0.11927 5.22947,-0.51632 7.85237,-0.65437 2.61383,-0.13756 5.23491,0 7.85236,0 3.70807,0 7.41613,0 11.1242,0"
         id="path3302"
         inkscape:connector-curvature="0" />
      <path
         style="fill:none;stroke:#000000;stroke-width:0.41209006px;stroke-linecap:butt;stroke-linejoin:miter;stroke-opacity:1"
         d="m 659.85676,776.54302 c 5.43495,3.1997 6.33937,4.28943 11.49457,2.65324 1.23006,-0.39039 2.39384,-1.19295 3.65737,-1.32662 19.13616,-2.02452 1.31763,0.66331 13.58449,0.66331 1.05938,0 2.082,-0.51479 3.13488,-0.66331 1.03858,-0.1465 2.08993,0 3.13489,0 11.57562,0 -0.61344,-0.42901 6.26977,0.66331 0.69126,0.1097 1.39328,0 2.08992,0 0.17416,0 0.52248,-0.2211 0.52248,0 0,0.22111 -0.34832,0 -0.52248,0"
         id="path3304"
         inkscape:connector-curvature="0" />
      <path
         style="fill:none;stroke:#000000;stroke-width:0.45805499px;stroke-linecap:butt;stroke-linejoin:miter;stroke-opacity:1"
         d="m 663.15157,788.34455 c 2.23991,0.71271 12.96473,4.87775 18.3222,5.23492 1.95874,0.13058 3.92618,0 5.88927,0 2.18122,0 4.36243,0 6.54365,0 1.74497,0 3.48994,0 5.23491,0 1.52685,0 3.06904,0.21593 4.58055,0 0.21593,-0.0308 -0.15424,-0.50013 0,-0.65437 0.34488,-0.34487 0.87249,-0.43624 1.30873,-0.65436"
         id="path3306"
         inkscape:connector-curvature="0" />
      <path
         style="fill:none;stroke:#000000;stroke-width:0.45805499px;stroke-linecap:butt;stroke-linejoin:miter;stroke-opacity:1"
         d="m 659.87975,802.74057 c 6.49941,-2.64226 10.09058,5.74162 15.70474,6.54364 4.65898,0.66557 10.72628,-0.76822 15.05038,-1.30873 2.17516,-0.27189 4.3564,-0.50855 6.54364,-0.65436 1.08819,-0.0725 2.19605,0.17929 3.27182,0 0.30427,-0.0507 0.43624,-0.87249 0.65436,-0.65437 0.21812,0.21812 -0.96283,0.65437 -0.65436,0.65437 0.48773,0 0.96385,-0.30949 1.30873,-0.65437 1.3539,-1.3539 -2.06895,0.0529 0.65436,-1.30872 0.19509,-0.0975 0.45927,0.0975 0.65436,0 1.38897,-0.69449 4.43234,-3.28413 5.23492,-3.92619"
         id="path3308"
         inkscape:connector-curvature="0" />
      <path
         style="fill:none;stroke:#000000;stroke-width:0.45805499px;stroke-linecap:butt;stroke-linejoin:miter;stroke-opacity:1"
         d="m 663.02069,818.57618 c 4.36243,0.21812 8.71941,0.65437 13.08729,0.65437 1.54235,0 3.04453,-0.51473 4.58055,-0.65437 0.8689,-0.079 1.74497,0 2.61746,0 1.30872,0 2.61745,0 3.92618,0 4.14431,0 8.28861,0 12.43292,0 1.74497,0 3.48994,0 5.23491,0 0.65437,0 1.30873,0 1.9631,0 0.21812,0 0.65436,-0.21812 0.65436,0 0,0.21812 -0.43624,0 -0.65436,0"
         id="path3310"
         inkscape:connector-curvature="0" />
      <path
         style="fill:none;stroke:#000000;stroke-width:0.45805499px;stroke-linecap:butt;stroke-linejoin:miter;stroke-opacity:1"
         d="m 663.80593,834.80442 c 5.90827,-6.41658 13.21436,1.28331 19.63093,0 1.15181,-0.23036 2.18121,-0.87249 3.27182,-1.30873 1.96309,-0.43624 3.91274,-0.93813 5.88928,-1.30873 1.51593,-0.28424 3.04352,-0.52628 4.58055,-0.65437 1.95631,-0.16302 3.94591,0.27763 5.88927,0 0.68283,-0.0975 1.28027,-0.55681 1.96309,-0.65436 1.3711,-0.19587 3.12888,0 4.58055,0"
         id="path3312"
         inkscape:connector-curvature="0" />
    </g>
  </g>
</svg>
